<svg width="29" height="29" viewBox="0 0 29 29" fill="none" xmlns="http://www.w3.org/2000/svg">
<circle cx="14.5" cy="14.5" r="14.5" fill="#13AEAB"/>
<path fill-rule="evenodd" clip-rule="evenodd" d="M12.4965 6.95996H16.6093C17.3664 6.95996 17.9802 7.57374 17.9802 8.33088V9.01602H20.0365C20.7936 9.01602 21.4074 9.6298 21.4074 10.3869V11.7579C21.4074 12.515 20.7936 13.1288 20.0365 13.1288H19.9816L19.3511 20.6682C19.3511 21.4253 18.7373 22.0391 17.9802 22.0391H11.1256C10.3684 22.0391 9.75466 21.4253 9.75703 20.7251L9.124 13.1288H9.06916C8.31202 13.1288 7.69824 12.515 7.69824 11.7579V10.3869C7.69824 9.6298 8.31202 9.01602 9.06916 9.01602H11.1256V8.33088C11.1256 7.57374 11.7394 6.95996 12.4965 6.95996ZM11.1256 10.3873V10.3865H9.06918V11.7574H20.0365V10.3865H17.9802V10.3873H11.1256ZM18.606 13.1288H10.4993L11.1255 20.6687H17.9801L17.9824 20.6118L18.606 13.1288ZM16.6093 8.33066V9.01612H12.4965V8.33066H16.6093ZM12.0116 14.9843L12.981 14.015L14.5527 15.5866L16.1244 14.015L17.0938 14.9843L15.5221 16.556L17.0938 18.1277L16.1244 19.0971L14.5527 17.5254L12.981 19.0971L12.0116 18.1277L13.5833 16.556L12.0116 14.9843Z" fill="white"/>
</svg>
